Coordinates
version=1
nRows=15
nColumns=46
inDegrees=yes

Units are S.I. units (second, meters, Newtons, ...)
Angles are in degrees.

endheader
time	pelvis_tilt	pelvis_list	pelvis_rotation	pelvis_tx	pelvis_ty	pelvis_tz	bb_angle	bb_tx	bb_ty	bb_tz	hip_flexion_r	hip_adduction_r	hip_rotation_r	knee_angle_r	knee_angle_r_beta	ankle_angle_r	subtalar_angle_r	mtp_angle_r	crank_angle_r	hip_flexion_l	hip_adduction_l	hip_rotation_l	knee_angle_l	knee_angle_l_beta	ankle_angle_l	subtalar_angle_l	mtp_angle_l	crank_angle_l	lumbar_extension	lumbar_bending	lumbar_rotation	arm_flex_r	arm_add_r	arm_rot_r	elbow_flex_r	pro_sup_r	wrist_flex_r	wrist_dev_r	arm_flex_l	arm_add_l	arm_rot_l	elbow_flex_l	pro_sup_l	wrist_flex_l	wrist_dev_l
      7.50000000	    -37.09368483	      2.88003725	      1.82466336	      0.30669674	      1.02933945	     -0.19832614	      0.00000000	      0.50000000	      0.00000000	      0.25000000	     70.88342911	     -5.14111340	      2.85083715	     60.10487051	      1.04902789	     12.30683785	     -8.75749887	      0.00000000	      0.00000000	     62.45852651	     -1.76493742	      5.98165630	     76.55149818	      1.33607569	    -36.17650263	     -3.97627842	      0.00000000	      0.00000000	    -36.71380829	     -3.53315053	      4.50124045	     41.49113720	    -27.60064016	     32.77799477	     81.73292567	     52.32396288	      0.00000000	      0.00000000	     59.05035419	    -20.73327607	     49.63046391	     65.03157922	     50.57664063	      0.00000000	      0.00000000
      7.50500000	    -37.01689336	      2.47411159	      2.93322692	      0.30719813	      1.02840927	     -0.19783744	      0.00000000	      0.50000000	      0.00000000	      0.25000000	     68.70623109	     -5.45463802	      2.52533807	     57.16930362	      0.99779258	     11.25909880	     -9.94080051	      0.00000000	      0.00000000	     63.92918648	     -1.17288417	      6.94599534	     78.83788406	      1.37598065	    -36.39397747	     -4.05625818	      0.00000000	      0.00000000	    -36.45663865	     -2.76248175	      3.75768623	     40.72844065	    -25.76150094	     31.07263545	     80.72636352	     51.94617282	      0.00000000	      0.00000000	     59.56301270	    -21.20502560	     50.79871165	     64.54907247	     50.65236022	      0.00000000	      0.00000000
      7.51000000	    -36.91338392	      2.10980722	      4.03650027	      0.30767198	      1.02739309	     -0.19754182	      0.00000000	      0.50000000	      0.00000000	      0.25000000	     66.53920207	     -5.79651944	      2.22555736	     54.36492251	      0.94884690	     10.25240081	    -10.88515517	      0.00000000	      0.00000000	     65.38835584	     -0.51700279	      7.80707256	     81.11904515	      1.41579442	    -36.52931048	     -4.32420184	      0.00000000	      0.00000000	    -36.23943888	     -1.99214172	      3.00916348	     39.88253921	    -23.82131252	     29.16788255	     79.99630723	     51.60629034	      0.00000000	      0.00000000	     60.19908623	    -21.80223084	     52.32934374	     64.22229861	     50.79076865	      0.00000000	      0.00000000
      7.51500000	    -36.86412862	      1.72972911	      5.28239637	      0.30812553	      1.02597450	     -0.19754769	      0.00000000	      0.50000000	      0.00000000	      0.25000000	     64.43582836	     -6.23151614	      1.80669534	     51.65352759	      0.90152413	      9.40015040	    -11.81171464	      0.00000000	      0.00000000	     66.95864360	      0.28377374	      8.69869006	     83.44942679	      1.45646726	    -36.42745141	     -4.50694658	      0.00000000	      0.00000000	    -35.90590183	     -1.16181774	      2.25475515	     38.82281076	    -21.75461716	     26.69940346	     79.25642052	     51.23303340	      0.00000000	      0.00000000	     60.98373568	    -22.34822344	     54.23698896	     63.87852433	     50.98014034	      0.00000000	      0.00000000
      7.52000000	    -36.66702537	      1.48740939	      6.46334831	      0.30844293	      1.02487984	     -0.19737032	      0.00000000	      0.50000000	      0.00000000	      0.25000000	     62.19350099	     -6.64260850	      1.57635907	     48.99850909	      0.85518531	      8.65260038	    -12.06111393	      0.00000000	      0.00000000	     68.34474868	      1.10065993	      9.41085021	     85.72396544	      1.49616544	    -36.08896265	     -4.77014044	      0.00000000	      0.00000000	    -35.78303879	     -0.46859147	      1.50748975	     38.23253727	    -21.07482090	     26.42248738	     79.23394165	     51.19826880	      0.00000000	      0.00000000	     61.30855762	    -22.48385845	     54.52108384	     63.72465987	     50.98291279	      0.00000000	      0.00000000
      7.52500000	    -36.69081811	      0.67078796	      7.88573096	      0.30919157	      1.02319436	     -0.19764654	      0.00000000	      0.50000000	      0.00000000	      0.25000000	     60.05210587	     -6.88602003	      0.64101390	     46.28962679	      0.80790640	      7.22168601	    -13.40557303	      0.00000000	      0.00000000	     70.11304220	      1.87023980	     10.69096321	     88.09248634	      1.53750393	    -35.60857531	     -4.85808301	      0.00000000	      0.00000000	    -35.30866514	      0.95960797	      0.70470929	     37.54722640	    -19.51208510	     24.97149351	     78.84996222	     50.99242037	      0.00000000	      0.00000000	     61.37140439	    -22.99260014	     55.53752637	     63.37646248	     51.04678595	      0.00000000	      0.00000000
      7.53000000	    -36.43526869	      0.20461166	      9.01148027	      0.30962772	      1.02176485	     -0.19748619	      0.00000000	      0.50000000	      0.00000000	      0.25000000	     57.75303630	     -6.99725571	      0.20241309	     43.64365836	      0.76172554	      5.78285977	    -14.37272439	      0.00000000	      0.00000000	     71.54737332	      2.55788296	     11.57353436	     90.50875917	      1.57967585	    -34.58604100	     -4.81157004	      0.00000000	      0.00000000	    -35.12869171	      1.87349771	     -0.02447777	     36.89791816	    -17.87057622	     23.50303826	     78.35992305	     50.76836507	      0.00000000	      0.00000000	     61.75135168	    -23.39464073	     56.57441827	     63.18879145	     51.13603624	      0.00000000	      0.00000000
      7.53500000	    -36.15025980	     -0.25684440	     10.16604087	      0.30995926	      1.02037165	     -0.19747585	      0.00000000	      0.50000000	      0.00000000	      0.25000000	     55.43437174	     -7.05115675	     -0.20103691	     41.03841837	      0.71625552	      4.16818550	    -15.79556692	      0.00000000	      0.00000000	     72.96445825	      3.32953288	     12.49963464	     92.86785489	      1.62084984	    -33.27826312	     -4.42006772	      0.00000000	      0.00000000	    -34.99334443	      2.74184366	     -0.81708185	     36.45682442	    -15.89840087	     20.29257858	     77.02085109	     50.24508531	      0.00000000	      0.00000000	     62.48235399	    -23.96822188	     58.17730024	     63.12739210	     51.31497520	      0.00000000	      0.00000000
      7.54000000	    -35.92681256	     -0.49942911	     11.23654673	      0.31023642	      1.01902204	     -0.19732193	      0.00000000	      0.50000000	      0.00000000	      0.25000000	     53.29919548	     -7.22529498	     -0.44616787	     38.66337956	      0.67480327	      2.72389267	    -16.40699236	      0.00000000	      0.00000000	     74.40781263	      4.08309139	     13.07829014	     95.17927763	      1.66119177	    -31.69796560	     -4.16361371	      0.00000000	      0.00000000	    -34.85468269	      3.27397205	     -1.29930328	     35.22224664	    -13.02205638	     15.74577388	     76.68132448	     49.90905981	      0.00000000	      0.00000000	     64.41342503	    -24.56954567	     62.47822010	     62.66223838	     51.80897336	      0.00000000	      0.00000000
      7.54500000	    -35.97421545	     -0.61173636	     12.31899235	      0.31047418	      1.01735604	     -0.19737498	      0.00000000	      0.50000000	      0.00000000	      0.25000000	     51.53930719	     -7.57791228	     -0.54572593	     36.58026206	      0.63844601	      1.86787787	    -16.11218770	      0.00000000	      0.00000000	     76.11896988	      4.95137566	     13.39583838	     97.41920197	      1.70028583	    -30.17654658	     -4.48391886	      0.00000000	      0.00000000	    -34.43055486	      3.61431581	     -1.99220671	     34.58717378	    -12.20267548	     16.24982799	     76.97401249	     50.00073748	      0.00000000	      0.00000000	     64.66762872	    -24.27442820	     62.52764352	     62.66754729	     51.80124929	      0.00000000	      0.00000000
      7.55000000	    -35.24644160	     -1.02758169	     13.35583854	      0.31110822	      1.01701160	     -0.19646005	      0.00000000	      0.50000000	      0.00000000	      0.25000000	     48.87274448	     -7.38389573	     -1.21910309	     34.14239070	      0.59589713	     -0.54931393	    -17.87506243	      0.00000000	      0.00000000	     77.07626073	      5.38208859	     14.23632594	     99.63641534	      1.73898350	    -27.69958075	     -3.16056505	      0.00000000	      0.00000000	    -34.88812109	      4.53640012	     -2.66964029	     34.46005895	    -10.92619930	     15.65753383	     77.10842881	     49.98801207	      0.00000000	      0.00000000	     65.22917426	    -24.97023985	     63.73893617	     62.36302020	     51.91228139	      0.00000000	      0.00000000
      7.55500000	    -34.99921342	     -1.76472648	     14.87046895	      0.31094226	      1.01573593	     -0.19758915	      0.00000000	      0.50000000	      0.00000000	      0.25000000	     46.89243844	     -7.60182415	     -2.61712560	     32.10572985	      0.56035069	     -2.08018683	    -18.06269100	      0.00000000	      0.00000000	     78.74428712	      6.46842999	     15.28533479	    101.87608159	      1.77807305	    -25.39768249	     -2.28066345	      0.00000000	      0.00000000	    -34.61766979	      5.87660120	     -3.53680370	     34.18145102	     -9.91635743	     14.67293760	     76.79379644	     49.87536892	      0.00000000	      0.00000000	     65.78915096	    -25.29272041	     65.14925679	     62.41048815	     52.11214586	      0.00000000	      0.00000000
      7.56000000	    -34.92005218	     -2.15635459	     16.08906242	      0.31097745	      1.01436503	     -0.19845803	      0.00000000	      0.50000000	      0.00000000	      0.25000000	     45.23348078	     -7.89175928	     -3.61656646	     30.36906729	      0.53004021	     -3.52924536	    -17.84897809	      0.00000000	      0.00000000	     80.45793743	      7.34713768	     15.76736600	    103.98430785	      1.81486854	    -22.97847505	     -1.74713531	      0.00000000	      0.00000000	    -34.23743143	      6.71016574	     -4.37463785	     33.81965223	     -9.06122448	     13.82844538	     76.49672616	     49.78610248	      0.00000000	      0.00000000	     66.21027459	    -25.57834184	     66.35477495	     62.48668005	     52.29974411	      0.00000000	      0.00000000
      7.56500000	    -34.72567908	     -2.53975596	     17.37069860	      0.31079798	      1.01332127	     -0.19895244	      0.00000000	      0.50000000	      0.00000000	      0.25000000	     43.54824594	     -8.15919803	     -4.71215810	     28.79474290	      0.50256307	     -4.88093816	    -17.50937407	      0.00000000	      0.00000000	     82.09752984	      8.19696086	     16.20312661	    105.91350526	      1.84853939	    -20.82910908	     -1.06274901	      0.00000000	      0.00000000	    -34.04413170	      7.52927976	     -5.15813880	     33.50648710	     -8.55703319	     13.55775054	     76.15114432	     49.72586385	      0.00000000	      0.00000000	     66.54333182	    -25.69097405	     67.01083984	     62.51226694	     52.40115184	      0.00000000	      0.00000000
      7.57000000	    -34.30342461	     -2.77662633	     18.71456644	      0.31057049	      1.01282559	     -0.19922785	      0.00000000	      0.50000000	      0.00000000	      0.25000000	     41.66096356	     -8.45898774	     -5.85258291	     27.33957818	      0.47716566	     -6.38728002	    -17.32694132	      0.00000000	      0.00000000	     83.49296641	      8.96329492	     16.43511210	    107.64808540	      1.87881352	    -18.56610375	      0.13844571	      0.00000000	      0.00000000	    -34.11864011	      8.28829104	     -6.22090612	     33.54994631	     -7.78858247	     13.05857025	     75.74852233	     49.64173551	      0.00000000	      0.00000000	     67.15424975	    -26.17954002	     67.99837650	     62.66138573	     52.57738585	      0.00000000	      0.00000000
